<svg width="64" height="64" viewBox="0 0 64 64" fill="none" xmlns="http://www.w3.org/2000/svg">
<path d="M0.5 16C0.5 7.43959 7.43959 0.5 16 0.5H48C56.5604 0.5 63.5 7.43959 63.5 16V48C63.5 56.5604 56.5604 63.5 48 63.5H16C7.43959 63.5 0.5 56.5604 0.5 48V16Z" stroke="#1565D8" stroke-opacity="0.1"/>
<path d="M48.8874 27.3101V46.9711C48.8874 48.2952 47.7396 49.369 46.3242 49.369H18.1292C16.7138 49.369 15.566 48.2952 15.566 46.9711C15.566 28.3841 15.5643 31.8659 15.5716 27.3101H48.8874Z" fill="#E1F4F5"/>
<path d="M48.8875 27.3101V31.8509C48.8875 32.8336 48.0454 33.6477 46.995 33.6517C46.9833 33.6518 17.4788 33.6518 17.4575 33.6517C16.4074 33.6474 15.566 32.8333 15.566 31.8509C15.566 30.5403 15.565 31.4452 15.5716 27.3101H48.8875Z" fill="#CAEFF2"/>
<path d="M38.7148 38.6534V49.369H25.7386V38.6534C25.7386 37.3293 26.8864 36.2555 28.3018 36.2555H36.1516C37.567 36.2555 38.7148 37.3293 38.7148 38.6534Z" fill="#F4FEFF"/>
<path d="M50.8098 27.3099C50.8098 29.7091 48.7302 31.6561 46.164 31.6561C43.5984 31.6561 41.5182 29.7101 41.5182 27.3099C41.5182 29.7101 39.4381 31.6561 36.8725 31.6561C34.3069 31.6561 32.2267 29.7101 32.2267 27.3099C32.2267 29.7101 30.1465 31.6561 27.5809 31.6561C25.0153 31.6561 22.9351 29.7101 22.9351 27.3099C22.9311 29.6944 20.8333 31.6561 18.2894 31.6561C15.7485 31.6561 13.6476 29.6968 13.6436 27.3099C13.6436 23.5327 13.6325 23.7651 13.6716 23.5917C13.7101 23.4215 13.4436 24.0241 17.474 15.322C17.6774 14.8836 18.1396 14.5996 18.6498 14.5996H45.8036C46.3138 14.5996 46.776 14.8836 46.9794 15.322C51.0128 24.0305 50.7432 23.4214 50.7818 23.5917C50.8208 23.7647 50.8098 23.5285 50.8098 27.3099Z" fill="#CAEFF2"/>
<path d="M50.8098 27.31C50.8098 29.7091 48.7302 31.6561 46.164 31.6561C43.5984 31.6561 41.5182 29.7101 41.5182 27.31C41.5182 29.7101 39.438 31.6561 36.8725 31.6561C34.3069 31.6561 32.2267 29.7101 32.2267 27.31C32.2267 29.7101 30.1465 31.6561 27.5809 31.6561C25.0153 31.6561 22.9351 29.7101 22.9351 27.31C22.9311 29.6943 20.8333 31.6561 18.2893 31.6561C15.7485 31.6561 13.6476 29.6968 13.6436 27.31C13.6372 23.5121 13.6382 23.7399 13.6716 23.5918H50.7818C50.8208 23.7648 50.8098 23.5286 50.8098 27.31V27.31Z" fill="#CAEFF2"/>
<path d="M45.4574 17.8029C37.3211 16.7553 29.1097 18.099 22.4682 22.7808C21.7206 23.3078 20.8094 23.5918 19.8733 23.5918H13.6717C13.7101 23.4216 13.4436 24.0242 17.474 15.322C17.6775 14.8836 18.1396 14.5996 18.6499 14.5996H45.8037C46.3144 14.5996 46.7763 14.8833 46.9794 15.3217L47.1579 15.707C47.6582 16.787 46.7039 17.9634 45.4574 17.8029V17.8029Z" fill="white"/>
<path d="M49.56 34.325V47C49.56 48.6542 48.1214 50 46.3532 50H18.1336C16.3654 50 14.9268 48.6542 14.9268 47V34.325C14.9268 33.9937 15.214 33.725 15.5682 33.725C15.9224 33.725 16.2096 33.9937 16.2096 34.325V47C16.2096 47.9926 17.0727 48.8 18.1336 48.8H25.1083V38.675C25.1083 37.0208 26.5469 35.675 28.3151 35.675H36.1717C37.9399 35.675 39.3785 37.0208 39.3785 38.675V46.4C39.3785 46.7314 39.0913 47 38.7371 47C38.3829 47 38.0958 46.7314 38.0958 46.4V38.675C38.0958 37.6825 37.2326 36.875 36.1717 36.875H28.3151C27.2542 36.875 26.3911 37.6825 26.3911 38.675V48.8H31.6021V39.35C31.6021 39.0187 31.8892 38.75 32.2434 38.75C32.5976 38.75 32.8848 39.0187 32.8848 39.35V48.8H46.3532C47.4141 48.8 48.2773 47.9926 48.2773 47V34.325C48.2773 33.9937 48.5644 33.725 48.9186 33.725C49.2728 33.725 49.56 33.9936 49.56 34.325ZM17.1716 23.6C17.1716 23.9314 17.4587 24.2 17.8129 24.2C52.7081 24.2 50.9779 24.2584 51.2329 24.0754C51.3661 23.9795 51.4533 23.8411 51.4772 23.683C51.5129 23.4419 51.7431 24.0349 47.2623 14.3614C47.1606 14.142 46.9295 14 46.6738 14H17.8129C17.5573 14 17.326 14.142 17.2244 14.3614L13.0556 23.3614C12.9819 23.5206 13.0027 23.268 13.0027 27.3224C13.0073 30.0513 15.3809 32.2714 18.2939 32.2714C20.2964 32.2714 22.044 31.2222 22.9423 29.6797C24.9486 33.129 30.2333 33.1328 32.2433 29.6821C34.2517 33.13 39.5341 33.1308 41.543 29.6821C42.4406 31.2232 44.1884 32.2714 46.1928 32.2714C49.1104 32.2714 51.484 30.0509 51.484 27.3214C51.484 26.9901 51.1968 26.7214 50.8426 26.7214C50.4884 26.7214 50.2013 26.9901 50.2013 27.3214C50.2013 29.3892 48.4031 31.0714 46.1928 31.0714C43.9825 31.0714 42.1843 29.3892 42.1843 27.3214C42.1843 26.9901 41.8972 26.7214 41.543 26.7214C41.1888 26.7214 40.9016 26.9901 40.9016 27.3214C40.9016 29.3892 39.1034 31.0714 36.8932 31.0714C34.6829 31.0714 32.8847 29.3892 32.8847 27.3214C32.8847 26.9901 32.5975 26.7214 32.2433 26.7214C31.8891 26.7214 31.602 26.9901 31.602 27.3214C31.602 29.3892 29.8038 31.0714 27.5935 31.0714C25.4324 31.0714 23.585 29.4466 23.585 27.2914C23.585 26.9601 23.2979 26.6914 22.9437 26.6914C22.5895 26.6914 22.3023 26.9601 22.3023 27.2914C22.3023 29.4284 20.4665 31.0714 18.2939 31.0714C16.0871 31.0714 14.2889 29.3887 14.2854 27.3214V23.7244L18.234 15.2H46.2528L49.8658 23H17.8129C17.4587 23 17.1716 23.2686 17.1716 23.6V23.6Z" fill="#52C29D"/>
</svg>
