<svg width="64" height="64" viewBox="0 0 64 64" fill="none" xmlns="http://www.w3.org/2000/svg">
<path d="M40.8053 14.5997C42.221 14.5997 43.3691 15.6738 43.3691 16.9982V46.9788C43.3691 48.3032 42.221 49.3773 40.8053 49.3773H23.1793C21.7636 49.3773 20.6155 48.3032 20.6155 46.9788V16.9982C20.6155 15.6738 21.7636 14.5997 23.1793 14.5997H40.8053Z" fill="#D1E7FF"/>
<path d="M36.0238 27.4703C36.6375 27.4703 37.1518 27.9028 37.2183 28.4732L38.0756 35.8394C38.1533 36.5043 37.5965 37.0851 36.881 37.0851H27.1034C26.388 37.0851 25.8311 36.5043 25.9089 35.8394L26.7661 28.4732C26.8326 27.9028 27.347 27.4703 27.9607 27.4703H36.0238Z" fill="#B9DCFF"/>
<path d="M40.9265 14.6023C42.9883 14.692 42.879 17.5977 40.8149 17.5977H32.473C27.6942 17.5977 23.8203 21.2218 23.8203 25.6925V49.3771H23.1793C21.7634 49.3771 20.6155 48.3033 20.6155 46.9787V16.9981C20.6155 15.6735 21.7634 14.5996 23.1793 14.5996C23.2953 14.5996 40.8324 14.5981 40.9265 14.6023V14.6023Z" fill="#E8F3FF"/>
<path d="M43.3691 44.1306V46.9788C43.3691 48.3031 42.221 49.3772 40.8053 49.3772H23.1793C21.7636 49.3772 20.6155 48.3031 20.6155 46.9788V44.1306H43.3691Z" fill="#B9DCFF"/>
<path d="M23.8203 44.1306V46.9877C23.8203 48.9409 20.6155 49.0408 20.6155 46.9787V44.1306H23.8203Z" fill="#D1E7FF"/>
<path d="M36.024 29.7189C32.1417 29.7189 28.9683 32.4531 28.5585 35.9753C28.4851 36.6068 27.915 37.0851 27.236 37.0851H27.1034C26.388 37.0851 25.8311 36.5043 25.9089 35.8394L26.7661 28.4732C26.8326 27.9028 27.347 27.4703 27.9607 27.4703H36.0238C36.637 27.4703 37.152 27.9024 37.2183 28.4727C37.2959 29.1393 36.7381 29.7189 36.024 29.7189Z" fill="#D1E7FF"/>
<path d="M40.8187 14H23.1813C21.4131 14 19.9745 15.3458 19.9745 17V47C19.9745 48.6542 21.4131 50 23.1813 50H40.8187C42.5869 50 44.0255 48.6542 44.0255 47V17C44.0255 15.3458 42.5869 14 40.8187 14ZM40.8187 48.8H23.1813C22.1205 48.8 21.2573 47.9926 21.2573 47V17C21.2573 16.0075 22.1205 15.2 23.1813 15.2H40.8187C41.8796 15.2 42.7428 16.0075 42.7428 17V43.55H24.3839C24.0297 43.55 23.7425 43.8187 23.7425 44.15C23.7425 44.4814 24.0297 44.75 24.3839 44.75H42.7428V47C42.7428 47.9926 41.8796 48.8 40.8187 48.8ZM33.4431 46.625C33.4431 46.9564 33.1559 47.225 32.8017 47.225H31.1983C30.8441 47.225 30.557 46.9564 30.557 46.625C30.557 46.2937 30.8441 46.025 31.1983 46.025H32.8017C33.1559 46.025 33.4431 46.2937 33.4431 46.625ZM27.1081 37.7H36.892C37.9889 37.7 38.8437 36.8079 38.7251 35.7883L37.8673 28.4176C37.7653 27.5407 36.9771 26.8794 36.0342 26.8794H35.4405V25.7686C35.4404 23.9938 33.8971 22.55 32 22.55C30.103 22.55 28.5596 23.9938 28.5596 25.7686V26.8793H27.9659C27.0229 26.8793 26.2349 27.5406 26.1328 28.4176L25.2751 35.7883C25.1563 36.8084 26.0118 37.7 27.1081 37.7V37.7ZM26.5502 35.9182L27.4079 28.5475C27.439 28.2806 27.6788 28.0793 27.9658 28.0793H28.5595V29.0155C28.5595 29.3469 28.8467 29.6155 29.2009 29.6155C29.5551 29.6155 29.8422 29.3469 29.8422 29.0155V25.7686C29.8422 24.6556 30.8101 23.75 31.9999 23.75C33.1897 23.75 34.1576 24.6555 34.1576 25.7686V26.8794H31.3834C31.0292 26.8794 30.7421 27.148 30.7421 27.4794C30.7421 27.8107 31.0292 28.0794 31.3834 28.0794H34.1576V29.0155C34.1576 29.3469 34.4448 29.6155 34.799 29.6155C35.1532 29.6155 35.4403 29.3469 35.4403 29.0155V28.0794H36.0341C36.3211 28.0794 36.5609 28.2807 36.592 28.5475L37.4497 35.9182C37.4858 36.2284 37.2275 36.5 36.8918 36.5H27.1081C26.7739 36.5 26.514 36.2296 26.5502 35.9182V35.9182Z" fill="#007FFC"/>
<path d="M0.5 16C0.5 7.43959 7.43959 0.5 16 0.5H48C56.5604 0.5 63.5 7.43959 63.5 16V48C63.5 56.5604 56.5604 63.5 48 63.5H16C7.43959 63.5 0.5 56.5604 0.5 48V16Z" stroke="#1565D8" stroke-opacity="0.1"/>
</svg>
